<?xml version="1.0" encoding="UTF-8" standalone="no"?>
<!-- Created with Inkscape (http://www.inkscape.org/) -->

<svg
   xmlns:dc="http://purl.org/dc/elements/1.1/"
   xmlns:cc="http://creativecommons.org/ns#"
   xmlns:rdf="http://www.w3.org/1999/02/22-rdf-syntax-ns#"
   xmlns:svg="http://www.w3.org/2000/svg"
   xmlns="http://www.w3.org/2000/svg"
   version="1.1"
   width="655.50995"
   height="170.24754"
   id="svg3380">
  <defs
     id="defs3382">
    <clipPath
       id="clipPath16">
      <path
         d="m 0,841.89 1190.55,0 L 1190.55,0 0,0 0,841.89 z"
         id="path18" />
    </clipPath>
  </defs>
  <metadata
     id="metadata3385">
    <rdf:RDF>
      <cc:Work
         rdf:about="">
        <dc:format>image/svg+xml</dc:format>
        <dc:type
           rdf:resource="http://purl.org/dc/dcmitype/StillImage" />
        <dc:title></dc:title>
      </cc:Work>
    </rdf:RDF>
  </metadata>
  <g
     transform="translate(-50.856665,-449.41554)"
     id="layer1">
    <g
       transform="matrix(1.25,0,0,-1.25,-365.71429,1060.9335)"
       id="g3242">
      <g
         id="g12">
        <g
           clip-path="url(#clipPath16)"
           id="g14">
          <g
             transform="translate(515.6061,391.1056)"
             id="g20">
            <path
               d="m 0,0 c -1.535,-0.828 -3.748,-1.713 -6.639,-2.656 -2.893,-0.943 -6.345,-1.417 -10.358,-1.417 -4.014,0 -7.54,0.62 -10.579,1.86 -3.04,1.239 -5.577,2.95 -7.613,5.134 -2.036,2.182 -3.571,4.765 -4.603,7.746 -1.034,2.98 -1.55,6.21 -1.55,9.693 0,3.542 0.443,6.831 1.329,9.871 0.885,3.039 2.198,5.679 3.939,7.922 1.74,2.243 3.88,3.998 6.418,5.268 2.537,1.268 5.459,1.903 8.764,1.903 2.833,0 5.12,-0.473 6.861,-1.416 1.74,-0.945 3.023,-2.036 3.851,-3.275 l 0,2.744 c 0.648,0.295 1.43,0.531 2.346,0.708 0.914,0.178 1.873,0.266 2.877,0.266 1.002,0 1.961,-0.088 2.876,-0.266 0.915,-0.177 1.697,-0.413 2.346,-0.708 l 0,-19.299 c -0.649,-0.296 -1.504,-0.562 -2.567,-0.796 -1.062,-0.237 -2.124,-0.354 -3.187,-0.354 -1.062,0 -2.124,0.117 -3.187,0.354 -1.062,0.234 -1.918,0.5 -2.566,0.796 l 0,3.187 c 0,2.537 -0.62,4.396 -1.86,5.577 -1.239,1.18 -2.863,1.771 -4.869,1.771 -1.476,0 -2.73,-0.355 -3.762,-1.063 -1.033,-0.708 -1.889,-1.667 -2.567,-2.876 -0.679,-1.211 -1.182,-2.642 -1.505,-4.294 -0.325,-1.653 -0.487,-3.395 -0.487,-5.223 0,-4.604 1.136,-7.997 3.409,-10.181 2.27,-2.183 5.178,-3.275 8.719,-3.275 2.95,0 5.591,0.517 7.923,1.549 2.331,1.032 4.411,2.228 6.241,3.586 L 0,0 z"
               id="path22"
               style="fill:#000000;fill-opacity:1;fill-rule:nonzero;stroke:none" />
          </g>
          <g
             transform="translate(544.8176,398.0101)"
             id="g24">
            <path
               d="M 0,0 C 1.534,0 2.846,0.368 3.939,1.107 5.03,1.844 5.916,2.847 6.595,4.116 7.272,5.385 7.775,6.86 8.1,8.542 8.424,10.224 8.586,11.98 8.586,13.81 8.586,15.639 8.424,17.38 8.1,19.033 7.775,20.685 7.272,22.131 6.595,23.37 5.916,24.61 5.03,25.598 3.939,26.337 2.846,27.073 1.534,27.443 0,27.443 c -1.535,0 -2.833,-0.37 -3.895,-1.106 -1.062,-0.739 -1.934,-1.727 -2.612,-2.967 -0.679,-1.239 -1.181,-2.685 -1.505,-4.337 -0.325,-1.653 -0.486,-3.394 -0.486,-5.223 0,-1.83 0.161,-3.586 0.486,-5.268 C -7.688,6.86 -7.186,5.385 -6.507,4.116 -5.829,2.847 -4.957,1.844 -3.895,1.107 -2.833,0.368 -1.535,0 0,0 m 0,-11.066 c -4.072,0 -7.585,0.695 -10.534,2.081 -2.952,1.386 -5.401,3.231 -7.348,5.533 -1.948,2.301 -3.394,4.942 -4.338,7.922 -0.945,2.98 -1.416,6.093 -1.416,9.34 0,3.187 0.471,6.27 1.416,9.251 0.944,2.979 2.39,5.621 4.338,7.923 1.947,2.301 4.396,4.146 7.348,5.533 2.949,1.386 6.462,2.08 10.534,2.08 4.072,0 7.598,-0.694 10.579,-2.08 2.979,-1.387 5.444,-3.232 7.391,-5.533 1.948,-2.302 3.394,-4.944 4.338,-7.923 0.943,-2.981 1.417,-6.064 1.417,-9.251 0,-3.247 -0.474,-6.36 -1.417,-9.34 C 21.364,1.49 19.918,-1.151 17.97,-3.452 16.023,-5.754 13.558,-7.599 10.579,-8.985 7.598,-10.371 4.072,-11.066 0,-11.066"
               id="path26"
               style="fill:#000000;fill-opacity:1;fill-rule:nonzero;stroke:none" />
          </g>
          <g
             transform="translate(596.2507,398.3645)"
             id="g28">
            <path
               d="m 0,0 c 0.943,0 1.888,0.221 2.833,0.664 0.943,0.443 1.799,1.164 2.566,2.169 0.767,1.003 1.386,2.359 1.86,4.072 0.472,1.71 0.708,3.835 0.708,6.374 0,1.651 -0.119,3.289 -0.355,4.913 -0.236,1.622 -0.649,3.067 -1.239,4.337 -0.59,1.269 -1.402,2.287 -2.434,3.055 -1.033,0.766 -2.317,1.15 -3.851,1.15 -1.593,0 -2.907,-0.384 -3.939,-1.15 -1.033,-0.768 -1.845,-1.802 -2.435,-3.099 -0.591,-1.299 -1.004,-2.76 -1.239,-4.382 -0.236,-1.624 -0.354,-3.32 -0.354,-5.09 0,-4.25 0.678,-7.48 2.036,-9.693 C -4.486,1.107 -2.539,0 0,0 M 8.586,-5.046 C 7.288,-6.994 5.621,-8.543 3.585,-9.694 c -2.037,-1.151 -4.471,-1.726 -7.303,-1.726 -3.66,0 -6.715,0.752 -9.163,2.257 -2.45,1.505 -4.426,3.467 -5.931,5.887 -1.505,2.419 -2.567,5.135 -3.187,8.144 -0.619,3.011 -0.93,6.02 -0.93,9.03 0,3.718 0.443,7.083 1.329,10.092 0.885,3.009 2.169,5.577 3.851,7.702 1.682,2.124 3.702,3.747 6.064,4.869 2.359,1.12 5.046,1.682 8.055,1.682 2.537,0 4.75,-0.43 6.639,-1.285 1.889,-0.855 3.423,-1.962 4.603,-3.319 l 0,13.279 -4.868,0 c -0.59,1.652 -0.885,3.305 -0.885,4.957 0,1.712 0.295,3.394 0.885,5.047 l 19.741,0 0,-57.1 4.869,0 c 0.59,-1.652 0.886,-3.335 0.886,-5.046 0,-1.653 -0.296,-3.305 -0.886,-4.957 l -18.148,0 -0.62,5.135 z"
               id="path30"
               style="fill:#000000;fill-opacity:1;fill-rule:nonzero;stroke:none" />
          </g>
          <g
             transform="translate(656.9773,416.6891)"
             id="g32">
            <path
               d="M 0,0 C 0.059,3.364 -0.575,5.812 -1.903,7.347 -3.23,8.881 -4.957,9.649 -7.081,9.649 -11.45,9.649 -13.958,6.432 -14.606,0 L 0,0 z m 12.306,-26.735 c -2.479,-0.885 -5.135,-1.608 -7.968,-2.168 -2.833,-0.561 -5.754,-0.842 -8.764,-0.842 -4.427,0 -8.203,0.708 -11.331,2.125 -3.129,1.416 -5.71,3.276 -7.746,5.577 -2.036,2.302 -3.527,4.942 -4.47,7.923 -0.946,2.979 -1.417,6.064 -1.417,9.251 0,3.068 0.427,6.093 1.284,9.073 0.854,2.98 2.182,5.636 3.984,7.968 1.799,2.331 4.115,4.205 6.948,5.621 2.833,1.416 6.198,2.125 10.093,2.125 4.129,0 7.582,-0.709 10.357,-2.125 2.773,-1.416 4.971,-3.262 6.595,-5.532 1.622,-2.273 2.773,-4.781 3.452,-7.525 0.678,-2.745 1.018,-5.445 1.018,-8.1 l 0,-5.312 -28.682,0 c 0.295,-2.832 1.461,-5.165 3.497,-6.994 2.036,-1.829 4.824,-2.744 8.366,-2.744 2.95,0 5.533,0.266 7.746,0.797 2.213,0.532 4.559,1.268 7.038,2.213 l 0,-11.331 z"
               id="path34"
               style="fill:#000000;fill-opacity:1;fill-rule:nonzero;stroke:none" />
          </g>
          <g
             transform="translate(701.7711,398.1868)"
             id="g36">
            <path
               d="m 0,0 0,47.095 -5.134,0 c -0.591,1.652 -0.886,3.306 -0.886,4.958 0,1.711 0.295,3.393 0.886,5.046 l 20.006,0 0,-23.016 c 1.358,1.239 3.024,2.27 5.002,3.098 1.977,0.825 4.382,1.239 7.215,1.239 4.603,0 8.277,-1.342 11.021,-4.028 2.744,-2.686 4.116,-6.566 4.116,-11.641 l 0,-22.751 5.135,0 c 0.589,-1.652 0.885,-3.335 0.885,-5.046 0,-1.653 -0.296,-3.305 -0.885,-4.957 l -20.006,0 0,30.099 c 0,2.359 -0.385,4.16 -1.152,5.399 -0.767,1.24 -2.124,1.86 -4.072,1.86 -0.827,0 -1.668,-0.119 -2.522,-0.355 -0.857,-0.236 -1.638,-0.723 -2.347,-1.461 -0.708,-0.737 -1.283,-1.77 -1.726,-3.097 -0.443,-1.329 -0.664,-3.055 -0.664,-5.179 l 0,-17.263 3.807,0 c 0.589,-1.652 0.885,-3.335 0.885,-5.046 0,-1.653 -0.296,-3.305 -0.885,-4.957 l -23.813,0 c -0.591,1.652 -0.886,3.304 -0.886,4.957 0,1.711 0.295,3.394 0.886,5.046 L 0,0 z"
               id="path38"
               style="fill:#000000;fill-opacity:1;fill-rule:nonzero;stroke:none" />
          </g>
          <g
             transform="translate(756.6574,425.3639)"
             id="g40">
            <path
               d="m 0,0 -5.134,0 c -0.591,1.652 -0.886,3.305 -0.886,4.957 0,1.712 0.295,3.394 0.886,5.047 l 20.006,0 0,-30.187 c 0,-2.302 0.384,-4.072 1.151,-5.312 0.767,-1.239 2.125,-1.859 4.072,-1.859 0.766,0 1.578,0.117 2.435,0.355 0.855,0.234 1.638,0.708 2.346,1.415 0.707,0.708 1.297,1.727 1.77,3.055 0.471,1.328 0.709,3.054 0.709,5.178 l 0,17.351 -4.073,0 c -0.591,1.652 -0.885,3.305 -0.885,4.957 0,1.712 0.294,3.394 0.885,5.047 l 18.944,0 0,-37.181 5.135,0 c 0.589,-1.652 0.885,-3.335 0.885,-5.046 0,-1.653 -0.296,-3.305 -0.885,-4.957 l -17.705,0 -0.531,4.957 c -1.24,-1.713 -2.996,-3.173 -5.268,-4.382 -2.272,-1.208 -5.178,-1.814 -8.72,-1.814 -4.603,0 -8.277,1.327 -11.02,3.983 C 1.373,-31.78 0,-27.916 0,-22.839 L 0,0 z"
               id="path42"
               style="fill:#000000;fill-opacity:1;fill-rule:nonzero;stroke:none" />
          </g>
          <g
             transform="translate(834.5597,398.3645)"
             id="g44">
            <path
               d="m 0,0 c 2.537,0 4.5,1.164 5.887,3.496 1.386,2.331 2.081,5.622 2.081,9.871 0,1.651 -0.119,3.276 -0.355,4.869 -0.236,1.593 -0.663,3.023 -1.283,4.293 -0.619,1.269 -1.447,2.287 -2.479,3.055 -1.033,0.766 -2.346,1.15 -3.939,1.15 -1.594,0 -2.893,-0.384 -3.895,-1.15 -1.004,-0.768 -1.801,-1.786 -2.39,-3.055 -0.591,-1.27 -1.005,-2.715 -1.24,-4.337 -0.237,-1.624 -0.354,-3.262 -0.354,-4.913 0,-2.421 0.206,-4.471 0.62,-6.153 C -6.935,5.443 -6.36,4.072 -5.621,3.009 -4.883,1.947 -4.028,1.18 -3.054,0.708 -2.081,0.234 -1.062,0 0,0 m -22.485,-0.178 0,47.096 -4.869,0 c -0.591,1.652 -0.886,3.305 -0.886,4.957 0,1.712 0.295,3.394 0.886,5.047 l 19.741,0 0,-23.548 c 1.121,1.239 2.64,2.36 4.559,3.364 1.918,1.002 4.352,1.505 7.304,1.505 2.832,0 5.413,-0.547 7.745,-1.638 2.331,-1.093 4.323,-2.656 5.976,-4.692 1.651,-2.036 2.921,-4.53 3.807,-7.48 0.884,-2.952 1.327,-6.286 1.327,-10.003 0,-2.952 -0.324,-5.963 -0.974,-9.031 C 21.481,2.33 20.405,-0.443 18.9,-2.922 17.396,-5.4 15.359,-7.437 12.792,-9.03 c -2.567,-1.594 -5.741,-2.39 -9.516,-2.39 -2.716,0 -5.121,0.635 -7.215,1.903 -2.095,1.269 -3.645,2.788 -4.647,4.56 l -0.709,-5.224 -18.059,0 c -0.591,1.652 -0.886,3.304 -0.886,4.957 0,1.711 0.295,3.394 0.886,5.046 l 4.869,0 z"
               id="path46"
               style="fill:#000000;fill-opacity:1;fill-rule:nonzero;stroke:none" />
          </g>
          <g
             transform="translate(433.8218,442.6394)"
             id="g48">
            <path
               d="m 0,0 c 0,5.168 -0.019,10.336 0.017,15.504 0.007,0.938 0.037,1.809 0.5,2.804 1.422,3.056 3.703,4.128 6.907,4.128 1.195,0 1.167,1.367 1.181,3.485 0.039,6.029 0.036,12.059 0,18.088 -0.011,1.87 -0.651,2.563 -2.512,2.565 -2.145,0.003 -4.74,-0.224 -6.532,-0.546 -2.261,-0.406 -3.922,-1.094 -5.797,-1.993 -4.842,-2.322 -8.876,-5.477 -12.044,-10.192 -2.573,-3.829 -4.157,-8.158 -4.139,-12.931 0.035,-9.187 0.027,-18.374 -0.002,-27.562 -0.006,-2.182 -1.454,-3.616 -3.588,-3.684 -1.291,-0.041 -10.698,0.093 -11.977,-0.036 -1.204,-0.122 -2.046,-0.782 -2.012,-2.169 0.022,-0.861 0.004,-1.723 0.004,-2.584 0,-4.737 0.076,-9.476 -0.033,-14.211 -0.052,-2.263 0.428,-3.273 2.261,-3.403 1,-0.071 10.113,-10e-4 11.118,-0.015 3.067,-0.043 4.207,-1.209 4.237,-4.342 0.014,-1.436 0.002,-2.871 0.002,-4.307 l 0,-4.737 0,-4.307 c 0,-1.579 0.045,-3.159 -0.013,-4.736 -0.05,-1.34 -0.191,-6.855 -0.008,-8.333 0.183,-1.488 0.219,-3.072 0.625,-4.83 1.183,-5.124 3.229,-9.601 9.87,-15.06 1.393,-1.145 4.742,-3.109 5.779,-3.581 4.466,-2.032 6.96,-2.153 11.831,-2.601 2.378,-0.218 2.923,0.496 2.935,2.93 0.027,5.742 0.026,11.484 0,17.226 -0.011,2.52 0.333,3.768 -2.217,4.094 -1.586,0.203 -2.341,0.247 -3.616,1.076 -1.892,1.23 -2.841,3.198 -2.814,5.679 0.096,8.755 -0.021,17.513 0.066,26.269 0.035,3.495 0.067,6.93 -2.174,9.875 -0.872,1.145 -0.647,2.055 0.323,2.951 1.683,1.555 1.874,3.559 1.843,5.705 C -0.047,-9.189 0,-4.594 0,0"
               id="path50"
               style="fill:#e22419;fill-opacity:1;fill-rule:nonzero;stroke:none" />
          </g>
          <g
             transform="translate(341.8899,399.5913)"
             id="g52">
            <path
               d="m 0,0 c 0,-5.168 0.019,-10.336 -0.017,-15.504 -0.007,-0.938 -0.037,-1.809 -0.5,-2.804 -1.422,-3.056 -3.703,-4.128 -6.907,-4.128 -1.195,0 -1.167,-1.367 -1.181,-3.485 -0.039,-6.029 -0.036,-12.059 0,-18.088 0.011,-1.87 0.651,-2.563 2.512,-2.565 2.145,-0.003 4.74,0.224 6.532,0.546 2.261,0.406 3.922,1.094 5.797,1.993 4.842,2.322 8.876,5.477 12.044,10.192 2.573,3.829 4.157,8.158 4.139,12.931 -0.035,9.187 -0.027,18.374 0.002,27.562 0.006,2.182 1.454,3.616 3.588,3.684 1.291,0.041 10.698,-0.093 11.977,0.036 1.204,0.122 2.046,0.782 2.012,2.169 -0.022,0.861 -0.004,1.723 -0.004,2.584 0,4.737 -0.076,9.476 0.033,14.211 0.052,2.263 -0.427,3.273 -2.261,3.403 -1,0.071 -10.113,10e-4 -11.118,0.015 -3.067,0.043 -4.206,1.209 -4.237,4.342 -0.014,1.436 -0.002,2.871 -0.002,4.307 l 0,4.737 0,4.307 c 0,1.579 -0.045,3.159 0.013,4.736 0.05,1.34 0.191,6.855 0.008,8.333 -0.183,1.488 -0.219,3.072 -0.625,4.83 -1.183,5.124 -3.229,9.601 -9.87,15.06 -1.393,1.145 -4.742,3.109 -5.779,3.581 -4.466,2.032 -6.96,2.153 -11.831,2.601 -2.378,0.218 -2.923,-0.496 -2.935,-2.93 -0.027,-5.742 -0.026,-11.484 0,-17.226 0.011,-2.52 -0.333,-3.768 2.217,-4.094 1.586,-0.203 2.341,-0.247 3.616,-1.076 1.892,-1.23 2.841,-3.198 2.814,-5.679 C -0.059,49.826 0.058,41.068 -0.029,32.312 -0.064,28.817 -0.096,25.382 2.145,22.437 3.017,21.292 2.792,20.382 1.822,19.486 0.139,17.931 -0.052,15.927 -0.021,13.781 0.047,9.189 0,4.594 0,0"
               id="path54"
               style="fill:#e22419;fill-opacity:1;fill-rule:nonzero;stroke:none" />
          </g>
        </g>
      </g>
    </g>
  </g>
</svg>
