<?xml version="1.0" encoding="UTF-8" standalone="no"?>
<!DOCTYPE svg PUBLIC "-//W3C//DTD SVG 1.1//EN" "http://www.w3.org/Graphics/SVG/1.1/DTD/svg11.dtd">
<svg width="100%" height="100%" viewBox="0 0 1008 666" version="1.1" xmlns="http://www.w3.org/2000/svg" xmlns:xlink="http://www.w3.org/1999/xlink" xml:space="preserve" xmlns:serif="http://www.serif.com/" style="fill-rule:evenodd;clip-rule:evenodd;stroke-miterlimit:10;">
    <g>
        <rect x="83.401" y="188.773" width="21.846" height="28.4" style="fill:rgb(63,61,86);"/>
        <g transform="matrix(1,0,0,1,-68.7379,0)">
            <rect x="567.401" y="586.773" width="21.846" height="28.4" style="fill:rgb(63,61,86);"/>
        </g>
        <g transform="matrix(-3.82857e-16,1,-1,-3.82857e-16,1260.11,-696.756)">
            <rect x="991.267" y="408.694" width="21.846" height="28.4" style="fill:rgb(63,61,86);"/>
        </g>
        <g transform="matrix(1,0,0,1,-68.7379,0)">
            <circle cx="847.031" cy="525.346" r="86.292" style="fill:rgb(47,46,65);"/>
        </g>
        <g transform="matrix(1,0,0,1,-68.7379,0)">
            <path d="M880.36,643.515L906.156,638.845L897.789,584.981L871.993,589.651L880.36,643.515Z" style="fill:rgb(47,46,65);fill-rule:nonzero;"/>
        </g>
        <g transform="matrix(-0.984006,0.178133,-0.178133,-0.984006,1818.85,1178.87)">
            <rect x="920.61" y="713.739" width="26.215" height="46.969" style="fill:rgb(47,46,65);"/>
        </g>
        <g transform="matrix(0.763108,-0.646271,0.646271,0.763108,-438.993,667.265)">
            <ellipse cx="933.402" cy="766.142" rx="21.846" ry="8.192" style="fill:rgb(47,46,65);"/>
        </g>
        <g transform="matrix(0.763108,-0.646271,0.646271,0.763108,-426.058,699.558)">
            <ellipse cx="983.92" cy="764.643" rx="21.846" ry="8.192" style="fill:rgb(47,46,65);"/>
        </g>
        <g transform="matrix(1,0,0,1,-68.7379,0)">
            <circle cx="840.99" cy="504.238" r="29.492" style="fill:white;"/>
        </g>
        <g transform="matrix(1,0,0,1,-68.7379,0)">
            <circle cx="828.869" cy="493.667" r="9.831" style="fill:rgb(63,61,86);"/>
        </g>
        <g transform="matrix(1,0,0,1,-164.973,-117.459)">
            <path d="M1011.34,548.928C1012.64,516.982 985.103,489.923 949.842,488.49C914.58,487.058 884.942,511.795 883.645,543.741C882.347,575.688 906.858,582.946 942.12,584.379C977.382,585.811 1010.04,580.875 1011.34,548.928Z" style="fill:rgb(108,99,255);fill-rule:nonzero;"/>
        </g>
        <g transform="matrix(0.223422,-0.974722,0.974722,0.223422,-105.563,1211.28)">
            <ellipse cx="863.588" cy="627.084" rx="13.545" ry="43.146" style="fill:rgb(47,46,65);"/>
        </g>
        <g transform="matrix(0.223422,-0.974722,0.974722,0.223422,-1.47625,1398.26)">
            <ellipse cx="1032.98" cy="655.253" rx="13.545" ry="43.146" style="fill:rgb(47,46,65);"/>
        </g>
        <g transform="matrix(1,0,0,1,-164.973,-117.459)">
            <path d="M966.967,676.812C967.178,677.972 967.284,679.148 967.284,680.327C967.284,691.113 958.408,699.988 947.622,699.988C938.148,699.988 929.954,693.14 928.273,683.816C926.338,673.131 934.6,669.35 945.285,667.416C955.97,665.482 965.033,666.127 966.967,676.812Z" style="fill:white;fill-rule:nonzero;"/>
        </g>
        <g transform="matrix(1,0,0,1,-68.7379,0)">
            <rect x="419.608" y="53" width="257" height="481" style="fill:rgb(242,242,242);"/>
        </g>
        <g transform="matrix(1,0,0,1,-164.973,-117.459)">
            <path d="M834.843,652.459L514.843,652.459L514.843,117.459L834.843,117.459L834.843,652.459ZM516.843,650.459L832.843,650.459L832.843,119.459L516.843,119.459L516.843,650.459Z" style="fill:rgb(63,61,86);fill-rule:nonzero;"/>
        </g>
        <rect x="44.019" y="662.841" width="963.51" height="2.241" style="fill:rgb(63,61,86);"/>
        <g transform="matrix(1,0,0,1,-164.973,-117.459)">
            <path d="M795.843,398.459L553.843,398.459L553.843,176.459L795.843,176.459L795.843,398.459ZM555.843,396.459L793.843,396.459L793.843,178.459L555.843,178.459L555.843,396.459Z" style="fill:rgb(63,61,86);fill-rule:nonzero;"/>
        </g>
        <g transform="matrix(1,0,0,1,-68.7379,0)">
            <path d="M459.315,222.139L457.901,220.725L533.324,145.302L577.608,189.586L697.401,69.793L698.815,71.207L577.608,192.414L533.324,148.13L459.315,222.139Z" style="fill:rgb(63,61,86);fill-rule:nonzero;"/>
        </g>
        <g transform="matrix(1,0,0,1,-68.7379,0)">
            <circle cx="533.608" cy="147" r="15" style="fill:rgb(108,99,255);"/>
        </g>
        <g transform="matrix(1,0,0,1,-68.7379,0)">
            <circle cx="578.608" cy="188" r="15" style="fill:rgb(108,99,255);"/>
        </g>
        <g transform="matrix(1,0,0,1,-68.7379,0)">
            <circle cx="698.608" cy="70" r="15" style="fill:rgb(108,99,255);"/>
        </g>
        <g transform="matrix(1,0,0,1,-68.7379,0)">
            <rect x="487.608" y="343" width="182" height="18" style="fill:rgb(63,61,86);"/>
        </g>
        <g transform="matrix(1,0,0,1,-68.7379,0)">
            <path d="M620.608,491L536.608,491L536.608,407L593.608,407L593.608,409L538.608,409L538.608,489L618.608,489L618.608,449L620.608,449L620.608,491Z" style="fill:rgb(63,61,86);fill-rule:nonzero;"/>
        </g>
        <g transform="matrix(1,0,0,1,-68.7379,0)">
            <path d="M578.175,469.09L560.408,445.4L566.808,440.6L579.041,456.91L635.28,400.672L640.936,406.328L578.175,469.09Z" style="fill:rgb(108,99,255);fill-rule:nonzero;"/>
        </g>
        <g transform="matrix(-1,0,0,1,1096.69,332.541)">
            <circle cx="906.052" cy="189.47" r="79" style="fill:rgb(47,46,65);"/>
        </g>
        <g transform="matrix(0.98401,0.17813,0.17813,-0.98401,-872.295,720.419)">
            <rect x="974.585" y="279.578" width="24" height="43" style="fill:rgb(47,46,65);"/>
        </g>
        <g transform="matrix(0.984006,0.178133,0.178133,-0.984006,-780.109,745.796)">
            <rect x="927.353" y="288.128" width="24" height="43" style="fill:rgb(47,46,65);"/>
        </g>
        <g transform="matrix(-0.763108,-0.646271,-0.646271,0.763108,1133.49,985.333)">
            <ellipse cx="939.065" cy="336.103" rx="20" ry="7.5" style="fill:rgb(47,46,65);"/>
        </g>
        <g transform="matrix(-0.763108,-0.646271,-0.646271,0.763108,1117.12,1013.24)">
            <ellipse cx="985.313" cy="327.731" rx="20" ry="7.5" style="fill:rgb(47,46,65);"/>
        </g>
        <g transform="matrix(-1,0,0,1,1096.69,332.541)">
            <circle cx="900.521" cy="170.146" r="27" style="fill:white;"/>
        </g>
        <g transform="matrix(-1,0,0,1,1096.69,332.541)">
            <circle cx="889.425" cy="160.468" r="9" style="fill:rgb(63,61,86);"/>
        </g>
        <g transform="matrix(-1,0,0,1,1138.73,298.823)">
            <path d="M1010.42,137.245C1011.6,107.998 986.396,83.225 954.114,81.914C921.832,80.603 894.7,103.249 893.512,132.496C892.324,161.743 914.764,168.388 947.046,169.7C979.328,171.011 1009.23,166.492 1010.42,137.245Z" style="fill:rgb(108,99,255);fill-rule:nonzero;"/>
        </g>
        <g transform="matrix(-0.223422,-0.974722,-0.974722,0.223422,662.625,1314)">
            <ellipse cx="875.15" cy="208.796" rx="12.4" ry="39.5" style="fill:rgb(47,46,65);"/>
        </g>
        <g transform="matrix(-0.223422,-0.974722,-0.974722,0.223422,567.334,1485.18)">
            <ellipse cx="1030.22" cy="234.584" rx="12.4" ry="39.5" style="fill:rgb(47,46,65);"/>
        </g>
        <g transform="matrix(1,0,0,1,-59.6344,140.236)">
            <path d="M213.397,411.936C213.397,419.668 233.305,434.936 255.397,434.936C277.488,434.936 298.201,413.168 298.201,405.436C298.201,397.704 277.488,406.936 255.397,406.936C233.305,406.936 213.397,404.204 213.397,411.936Z" style="fill:white;fill-rule:nonzero;"/>
        </g>
        <g transform="matrix(-1,0,0,1,1096.69,332.541)">
            <path d="M712.603,99L803.603,169" style="fill:none;fill-rule:nonzero;stroke:rgb(63,61,86);stroke-width:2px;"/>
        </g>
        <g transform="matrix(-1,0,0,1,1096.69,332.541)">
            <circle cx="669.603" cy="68" r="68" style="fill:rgb(255,101,132);"/>
        </g>
    </g>
</svg>
