<?xml version="1.0" encoding="UTF-8" standalone="no"?>
<!DOCTYPE svg PUBLIC "-//W3C//DTD SVG 1.1//EN" "http://www.w3.org/Graphics/SVG/1.1/DTD/svg11.dtd">
<svg width="100%" height="100%" viewBox="0 0 1008 666" version="1.1" xmlns="http://www.w3.org/2000/svg" xmlns:xlink="http://www.w3.org/1999/xlink" xml:space="preserve" xmlns:serif="http://www.serif.com/" style="fill-rule:evenodd;clip-rule:evenodd;stroke-linejoin:round;stroke-miterlimit:2;">
    <g>
        <g transform="matrix(1,0,0,1,-108.578,-2.62832)">
            <path d="M213.791,646.813L212.524,646.338C212.246,646.234 184.532,635.615 171.549,611.539C158.566,587.462 164.923,558.472 164.989,558.183L165.288,556.863L166.555,557.338C166.833,557.443 194.547,568.061 207.53,592.137C220.513,616.215 214.156,645.204 214.09,645.493L213.791,646.813ZM173.628,610.418C184.604,630.775 206.505,641.21 212.054,643.592C213.109,637.645 216.417,613.595 205.451,593.258C194.486,572.923 172.577,562.472 167.025,560.084C165.97,566.035 162.662,590.082 173.628,610.418Z" style="fill:rgb(63,61,86);fill-rule:nonzero;"/>
        </g>
        <g transform="matrix(1,0,0,1,-108.578,-2.62832)">
            <path d="M181.471,603.093C204.802,617.13 213.788,645.011 213.788,645.011C213.788,645.011 184.946,650.134 161.615,636.097C138.284,622.06 129.298,594.179 129.298,594.179C129.298,594.179 158.14,589.057 181.471,603.093Z" style="fill:rgb(208,205,225);fill-rule:nonzero;"/>
        </g>
        <g transform="matrix(-1.71321,0,0,1.71321,1044.64,-869.464)">
            <path d="M213.791,646.813L212.524,646.338C212.246,646.234 184.532,635.615 171.549,611.539C158.566,587.462 164.923,558.472 164.989,558.183L165.288,556.863L166.555,557.338C166.833,557.443 194.547,568.061 207.53,592.137C220.513,616.215 214.156,645.204 214.09,645.493L213.791,646.813ZM173.628,610.418C184.604,630.775 206.505,641.21 212.054,643.592C213.109,637.645 216.417,613.595 205.451,593.258C194.486,572.923 172.577,562.472 167.025,560.084C165.97,566.035 162.662,590.082 173.628,610.418Z" style="fill:rgb(63,61,86);fill-rule:nonzero;"/>
        </g>
        <g transform="matrix(-1.71321,0,0,1.71321,1044.64,-869.464)">
            <path d="M181.471,603.093C204.802,617.13 213.788,645.011 213.788,645.011C213.788,645.011 184.946,650.134 161.615,636.097C138.284,622.06 129.298,594.179 129.298,594.179C129.298,594.179 158.14,589.057 181.471,603.093Z" style="fill:rgb(208,205,225);fill-rule:nonzero;"/>
        </g>
        <g transform="matrix(1,0,0,1,-108.578,-2.62832)">
            <path d="M928.149,237.652L667.979,237.652L667.979,232.29L550.008,232.29L550.008,237.652L288.766,237.652C279.112,237.652 271.167,245.596 271.167,255.251L271.167,611.503C271.167,621.157 279.111,629.101 288.766,629.101L928.148,629.101C937.803,629.101 945.747,621.157 945.747,611.503L945.747,255.251C945.747,245.596 937.803,237.652 928.149,237.652Z" style="fill:rgb(63,61,86);fill-rule:nonzero;"/>
        </g>
        <g transform="matrix(1,0,0,1,20.72,229.662)">
            <rect x="165.464" y="36.464" width="627.391" height="353.913" style="fill:rgb(248,248,249);"/>
        </g>
        <g transform="matrix(1,0,0,1,20.72,229.662)">
            <circle cx="478.623" cy="20.377" r="6.435" style="fill:rgb(108,99,255);"/>
        </g>
        <g transform="matrix(1,0,0,1,-108.578,-2.62832)">
            <path d="M886.136,313.797L856.396,313.797L856.396,284.057L886.136,284.057L886.136,313.797ZM857.689,312.504L884.843,312.504L884.843,285.35L857.689,285.35L857.689,312.504Z" style="fill:rgb(63,61,86);fill-rule:nonzero;"/>
        </g>
        <g transform="matrix(1,0,0,1,-108.578,-2.62832)">
            <path d="M963.363,616.232L902.133,616.232L902.133,611.82C902.133,611.34 901.739,610.946 901.259,610.946L880.266,610.946C879.786,610.946 879.391,611.34 879.391,611.82L879.391,616.232L866.271,616.232L866.271,611.82C866.271,611.34 865.876,610.946 865.396,610.946L844.403,610.946C843.923,610.946 843.528,611.34 843.528,611.82L843.528,616.232L830.408,616.232L830.408,611.82C830.408,611.34 830.013,610.946 829.533,610.946L808.54,610.946C808.06,610.946 807.665,611.34 807.665,611.82L807.665,616.232L794.545,616.232L794.545,611.82C794.545,611.34 794.15,610.946 793.67,610.946L772.677,610.946C772.197,610.946 771.802,611.34 771.802,611.82L771.802,616.232L758.682,616.232L758.682,611.82C758.682,611.34 758.287,610.946 757.807,610.946L736.814,610.946C736.334,610.946 735.94,611.34 735.94,611.82L735.94,616.232L722.819,616.232L722.819,611.82C722.819,611.34 722.424,610.946 721.944,610.946L700.951,610.946C700.472,610.946 700.077,611.34 700.077,611.82L700.077,616.232L686.956,616.232L686.956,611.82C686.956,611.34 686.561,610.946 686.081,610.946L521.637,610.946C521.157,610.946 520.762,611.34 520.762,611.82L520.762,616.232L507.642,616.232L507.642,611.82C507.642,611.34 507.247,610.946 506.767,610.946L485.774,610.946C485.294,610.946 484.899,611.34 484.899,611.82L484.899,616.232L471.779,616.232L471.779,611.82C471.779,611.34 471.384,610.946 470.904,610.946L449.911,610.946C449.431,610.946 449.037,611.34 449.037,611.82L449.037,616.232L435.916,616.232L435.916,611.82C435.916,611.34 435.521,610.946 435.041,610.946L414.048,610.946C413.568,610.946 413.174,611.34 413.174,611.82L413.174,616.232L400.053,616.232L400.053,611.82C400.053,611.34 399.658,610.946 399.178,610.946L378.185,610.946C377.706,610.946 377.311,611.34 377.311,611.82L377.311,616.232L364.19,616.232L364.19,611.82C364.19,611.34 363.795,610.946 363.315,610.946L342.323,610.946C341.843,610.946 341.448,611.34 341.448,611.82L341.448,616.232L328.327,616.232L328.327,611.82C328.327,611.34 327.932,610.946 327.453,610.946L306.46,610.946C305.98,610.946 305.585,611.34 305.585,611.82L305.585,616.232L265.349,616.232C253.832,616.232 244.356,625.708 244.356,637.225L244.356,646.717C244.356,658.234 253.832,667.71 265.349,667.71L963.363,667.71C974.879,667.71 984.356,658.234 984.356,646.717L984.356,637.225C984.356,625.708 974.879,616.232 963.363,616.232Z" style="fill:rgb(63,61,86);fill-rule:nonzero;"/>
        </g>
        <g transform="matrix(1,0,0,1,20.72,229.662)">
            <rect x="28.711" y="413.883" width="912.693" height="2.785" style="fill:rgb(63,61,86);"/>
        </g>
        <g transform="matrix(1,0,0,1,-108.578,-2.62832)">
            <path d="M883.37,465.961L681.37,465.961L681.37,350.961L883.37,350.961L883.37,465.961ZM683.37,463.961L881.37,463.961L881.37,352.961L683.37,352.961L683.37,463.961Z" style="fill:rgb(63,61,86);fill-rule:nonzero;"/>
        </g>
        <g transform="matrix(1,0,0,1,-108.578,-2.62832)">
            <path d="M513.37,488.961L333.37,488.961L333.37,376.961L513.37,376.961L513.37,488.961ZM335.37,486.961L511.37,486.961L511.37,378.961L335.37,378.961L335.37,486.961Z" style="fill:rgb(63,61,86);fill-rule:nonzero;"/>
        </g>
        <g transform="matrix(1,0,0,1,-108.578,-2.62832)">
            <path d="M417.464,445.961L417.291,443.724C416.776,439.081 418.324,434.006 422.623,428.847C426.494,424.289 428.643,420.935 428.643,417.065C428.643,412.679 425.891,409.755 420.473,409.67C417.375,409.657 414.345,410.587 411.787,412.336L409.723,406.918C412.562,404.853 417.464,403.477 422.021,403.477C431.911,403.477 436.383,409.584 436.383,416.119C436.383,421.967 433.115,426.181 428.987,431.083C425.203,435.554 423.827,439.338 424.085,443.724L424.171,445.961L417.464,445.961ZM415.572,458.001C415.564,457.889 415.561,457.778 415.561,457.666C415.561,454.877 417.856,452.582 420.645,452.582C420.674,452.582 420.703,452.582 420.731,452.583C423.742,452.583 425.806,454.818 425.806,458.001C425.808,458.071 425.81,458.141 425.81,458.211C425.81,461.021 423.498,463.333 420.689,463.333C417.879,463.333 415.567,461.021 415.567,458.211C415.567,458.141 415.569,458.071 415.572,458.001Z" style="fill:rgb(108,99,255);fill-rule:nonzero;"/>
        </g>
        <g transform="matrix(1,0,0,1,-108.578,-2.62832)">
            <path d="M776.464,420.961L776.291,418.724C775.776,414.081 777.324,409.006 781.623,403.847C785.494,399.289 787.643,395.935 787.643,392.065C787.643,387.679 784.891,384.755 779.473,384.67C776.375,384.657 773.345,385.587 770.788,387.336L768.723,381.918C771.562,379.853 776.464,378.477 781.021,378.477C790.911,378.477 795.383,384.584 795.383,391.119C795.383,396.967 792.115,401.181 787.987,406.083C784.203,410.554 782.828,414.338 783.085,418.724L783.171,420.961L776.464,420.961ZM774.572,433.001C774.564,432.889 774.561,432.778 774.561,432.666C774.561,429.877 776.856,427.582 779.645,427.582C779.674,427.582 779.703,427.582 779.731,427.583C782.742,427.583 784.806,429.818 784.806,433.001C784.808,433.071 784.81,433.141 784.81,433.211C784.81,436.021 782.498,438.333 779.689,438.333C776.879,438.333 774.567,436.021 774.567,433.211C774.567,433.141 774.569,433.071 774.572,433.001Z" style="fill:rgb(108,99,255);fill-rule:nonzero;"/>
        </g>
        <g transform="matrix(1,0,0,1,20.72,229.662)">
            <circle cx="482.693" cy="260.849" r="86.292" style="fill:rgb(47,46,65);"/>
        </g>
        <g transform="matrix(1,0,0,1,20.72,229.662)">
            <path d="M449.365,379.018L423.568,374.348L431.935,320.484L457.731,325.154L449.365,379.018Z" style="fill:rgb(47,46,65);fill-rule:nonzero;"/>
        </g>
        <g transform="matrix(0.984006,0.178133,-0.178133,0.984006,6.02645,-103.948)">
            <rect x="608.432" y="564.073" width="26.215" height="46.969" style="fill:rgb(47,46,65);"/>
        </g>
        <g transform="matrix(0.19788,-0.980226,0.980226,0.19788,-205.495,1101.33)">
            <ellipse cx="626.082" cy="611.196" rx="8.192" ry="21.846" style="fill:rgb(47,46,65);"/>
        </g>
        <g transform="matrix(0.131327,-0.991339,0.991339,0.131327,-217.564,1095.51)">
            <ellipse cx="572.111" cy="611.257" rx="8.192" ry="21.846" style="fill:rgb(47,46,65);"/>
        </g>
        <g transform="matrix(1,0,0,1,20.72,229.662)">
            <circle cx="488.734" cy="239.741" r="29.492" style="fill:white;"/>
        </g>
        <g transform="matrix(1,0,0,1,20.72,229.662)">
            <circle cx="500.856" cy="229.17" r="9.831" style="fill:rgb(63,61,86);"/>
        </g>
        <g transform="matrix(1,0,0,1,-108.578,-2.62832)">
            <path d="M543.919,399.262C542.621,367.315 570.154,340.256 605.416,338.824C640.678,337.391 670.315,362.128 671.613,394.075C672.911,426.022 648.399,433.28 613.137,434.712C577.876,436.145 545.216,431.209 543.919,399.262Z" style="fill:rgb(108,99,255);fill-rule:nonzero;"/>
        </g>
        <g transform="matrix(0.974722,-0.223422,0.223422,0.974722,-197.759,163.974)">
            <ellipse cx="691.67" cy="477.418" rx="43.146" ry="13.545" style="fill:rgb(47,46,65);"/>
        </g>
        <g transform="matrix(0.974722,-0.223422,0.223422,0.974722,-208.335,126.841)">
            <ellipse cx="522.282" cy="505.587" rx="43.146" ry="13.545" style="fill:rgb(47,46,65);"/>
        </g>
        <g transform="matrix(1,0,0,1,-108.578,-2.62832)">
            <path d="M588.291,527.145C588.082,528.301 587.976,529.473 587.976,530.648C587.976,541.434 596.852,550.309 607.638,550.309C617.107,550.309 625.298,543.468 626.985,534.15C628.919,523.465 620.658,519.684 609.973,517.75C599.288,515.815 590.225,516.46 588.291,527.145Z" style="fill:white;fill-rule:nonzero;"/>
        </g>
        <g transform="matrix(1,0,0,1,20.72,229.662)">
            <rect x="154.535" y="13.122" width="141.887" height="134.967" style="fill:rgb(208,205,225);"/>
        </g>
        <g transform="matrix(1,0,0,1,20.72,229.662)">
            <rect x="170.658" y="29.246" width="109.64" height="83.842" style="fill:white;"/>
        </g>
        <g transform="matrix(1,0,0,1,20.72,229.662)">
            <rect x="170.55" y="122.979" width="59.637" height="3.139" style="fill:rgb(242,242,242);"/>
        </g>
        <g transform="matrix(1,0,0,1,20.72,229.662)">
            <rect x="170.55" y="132.396" width="59.637" height="3.139" style="fill:rgb(242,242,242);"/>
        </g>
        <g transform="matrix(1,0,0,1,20.72,229.662)">
            <circle cx="190.167" cy="71.19" r="12.555" style="fill:rgb(63,61,86);"/>
        </g>
        <g transform="matrix(1,0,0,1,20.72,229.662)">
            <circle cx="225.478" cy="71.19" r="12.555" style="fill:rgb(108,99,255);"/>
        </g>
        <g transform="matrix(1,0,0,1,20.72,229.662)">
            <circle cx="260.789" cy="71.19" r="12.555" style="fill:rgb(230,230,230);"/>
        </g>
        <g transform="matrix(1,0,0,1,20.72,229.662)">
            <circle cx="225.478" cy="20.969" r="6.278" style="fill:rgb(63,61,86);"/>
        </g>
        <g transform="matrix(1,0,0,1,20.72,229.662)">
            <rect x="222.022" y="274.459" width="141.887" height="134.967" style="fill:rgb(208,205,225);"/>
        </g>
        <g transform="matrix(1,0,0,1,20.72,229.662)">
            <rect x="238.146" y="290.582" width="109.64" height="83.842" style="fill:white;"/>
        </g>
        <g transform="matrix(1,0,0,1,20.72,229.662)">
            <rect x="262.272" y="304.361" width="38.437" height="38.437" style="fill:rgb(108,99,255);"/>
        </g>
        <g transform="matrix(1,0,0,1,-108.578,-2.62832)">
            <path d="M406.284,546.262L406.284,592.936L452.957,592.936L452.957,546.262L406.284,546.262ZM450.933,590.911L408.308,590.911L408.308,548.287L450.933,548.287L450.933,590.911Z" style="fill:rgb(63,61,86);fill-rule:nonzero;"/>
        </g>
        <g transform="matrix(1,0,0,1,20.72,229.662)">
            <rect x="238.037" y="382.747" width="59.637" height="3.139" style="fill:rgb(242,242,242);"/>
        </g>
        <g transform="matrix(1,0,0,1,20.72,229.662)">
            <circle cx="292.966" cy="282.306" r="6.278" style="fill:rgb(63,61,86);"/>
        </g>
        <g transform="matrix(1,0,0,1,20.72,229.662)">
            <rect x="591.437" y="234.053" width="141.887" height="134.967" style="fill:rgb(208,205,225);"/>
        </g>
        <g transform="matrix(1,0,0,1,20.72,229.662)">
            <rect x="607.56" y="250.176" width="109.64" height="83.842" style="fill:white;"/>
        </g>
        <g transform="matrix(1,0,0,1,20.72,229.662)">
            <rect x="650.587" y="315.812" width="23.587" height="6.99" style="fill:rgb(63,61,86);"/>
        </g>
        <g transform="matrix(1,0,0,1,20.72,229.662)">
            <rect x="622.072" y="261.393" width="80.617" height="2.996" style="fill:rgb(63,61,86);"/>
        </g>
        <g transform="matrix(1,0,0,1,20.72,229.662)">
            <rect x="622.072" y="270.879" width="80.617" height="2.996" style="fill:rgb(63,61,86);"/>
        </g>
        <g transform="matrix(1,0,0,1,20.72,229.662)">
            <rect x="622.072" y="280.365" width="80.617" height="2.996" style="fill:rgb(63,61,86);"/>
        </g>
        <g transform="matrix(1,0,0,1,20.72,229.662)">
            <rect x="622.072" y="289.851" width="80.617" height="2.996" style="fill:rgb(63,61,86);"/>
        </g>
        <g transform="matrix(1,0,0,1,20.72,229.662)">
            <rect x="622.072" y="299.337" width="80.617" height="2.996" style="fill:rgb(63,61,86);"/>
        </g>
        <g transform="matrix(1,0,0,1,20.72,229.662)">
            <rect x="607.451" y="342.341" width="59.637" height="3.139" style="fill:rgb(242,242,242);"/>
        </g>
        <g transform="matrix(1,0,0,1,20.72,229.662)">
            <rect x="607.451" y="350.187" width="83.178" height="3.139" style="fill:rgb(242,242,242);"/>
        </g>
        <g transform="matrix(1,0,0,1,20.72,229.662)">
            <circle cx="662.38" cy="241.9" r="6.278" style="fill:rgb(63,61,86);"/>
        </g>
    </g>
</svg>
